<?xml version="1.0" standalone="no"?>
<!DOCTYPE svg PUBLIC "-//W3C//DTD SVG 1.1//EN" "http://www.w3.org/Graphics/SVG/1.1/DTD/svg11.dtd">
<svg xmlns="http://www.w3.org/2000/svg">
<metadata>Copyright (C) 2018 by original authors @ fontello.com</metadata>
<defs>
<font id="phx-teleicon" horiz-adv-x="1000" >
<font-face font-family="phx-teleicon" font-weight="400" font-stretch="normal" units-per-em="1000" ascent="850" descent="-150" />
<missing-glyph horiz-adv-x="1000" />
<glyph glyph-name="percent" unicode="&#xe800;" d="M380 32l-325 325 325 325q9 8 20 8t20-8q8-8 8-19t-8-20l-286-286 286-286q8-8 8-20t-8-19-19-8-21 8z" horiz-adv-x="500" />

<glyph glyph-name="space" unicode="&#xe801;" d="M0-88z" horiz-adv-x="0" />

<glyph glyph-name="exclam" unicode="&#xe802;" d="M83 801h834q11 0 19-8t8-19v-834q0-11-8-19t-19-9h-834q-11 0-19 9t-8 19v834q0 12 8 19t19 8z m28-833h778v778h-778v-778z m429 112h-80v85h80v-85z m-4 384l-18-247h-36l-18 247v171h72v-171z" horiz-adv-x="1000" />

<glyph glyph-name="quotedbl" unicode="&#xe803;" d="M64 254l325 326 325-326q8-8 8-20t-8-19-20-9-19 8l-286 286-286-286q-8-8-20-8t-19 9-8 19 8 20z" horiz-adv-x="777.3" />

<glyph glyph-name="dollar" unicode="&#xe804;" d="M64 515q-8 10-8 21t8 19 19 8 20-8l286-286 286 286q8 8 19 8t20-8 8-20-8-20l-325-325z" horiz-adv-x="777.3" />

<glyph glyph-name="ampersand" unicode="&#xe805;" d="M389 580v-640q0-11-9-19t-19-9-20 9-8 19v640h-194l222 221 222-221h-194z" horiz-adv-x="666" />

<glyph glyph-name="parenleft" unicode="&#xe806;" d="M277 135v639q0 12 9 19t19 8 20-8 8-19v-639h194l-222-223-222 223h194z" horiz-adv-x="610.4" />

<glyph glyph-name="parenright" unicode="&#xe807;" d="M277 413h641q12 0 20-9t7-19-7-20-20-8h-641v-194l-221 222 221 222v-194z" horiz-adv-x="1000" />

<glyph glyph-name="asterisk" unicode="&#xe808;" d="M500 643l-76-230h-246l168-124 31-25-75-232 198 144 198-144-75 232 199 149h-246z m-21 112q4 16 21 16t22-16l94-287h306q18 0 21-15 5-18-8-26l-247-183 94-292q2-6 0-13-5-16-21-16-8 0-14 4l-247 180-247-180q-6-4-14-4-8 0-13 4-12 10-8 25l95 292-248 183q-13 9-8 26 5 15 21 15h306z" horiz-adv-x="1000" />

<glyph glyph-name="plus" unicode="&#xe809;" d="M556 357h361q11 0 19-8t8-20-8-19-19-9h-361v-361q0-11-9-19t-19-9-20 9-8 19v361h-361q-12 0-20 9t-8 19 8 20 20 8h361v361q0 12 8 20t20 8 19-8 9-20v-361z" horiz-adv-x="1000" />

<glyph glyph-name="hyphen" unicode="&#xe80a;" d="M64 349q8 8 19 8h834q11 0 19-8t8-20-8-19-19-9h-834q-11 0-19 9t-8 19 8 20z" horiz-adv-x="1000" />

<glyph glyph-name="slash" unicode="&#xe80b;" d="M723 357h-640q-11 0-19 8t-8 20 8 19 19 9h640v194l221-223-221-221v194z" horiz-adv-x="1000" />

<glyph glyph-name="zero" unicode="&#xe80c;" d="M889 468v278h-278v-278h278z m-333 333h388v-388h-388v388z m-167-333v278h-278v-278h278z m-333 333h388v-388h-388v388z m333-833v278h-278v-278h278z m-333 333h388v-389h-388v389z m833-333v278h-278v-278h278z m-333 333h388v-389h-388v389z" horiz-adv-x="1000" />

<glyph glyph-name="one" unicode="&#xe80d;" d="M833 158v398l-199-199z m-277 199l333 333v-666z m-112-199v398l-199-199z m-277 199l333 333v-666z m-111 306q0 11 8 19t20 8 19-8 8-19v-612q0-11-8-19t-19-8-20 8-8 19v612z" horiz-adv-x="1000" />

<glyph glyph-name="two" unicode="&#xe80e;" d="M500 158v398l-199-199z m-278 199l334 333v-666z m-112 306q0 11 9 19t20 8 19-8 8-19v-612q0-11-8-19t-19-8-20 8-9 19v612z" horiz-adv-x="610.4" />

<glyph glyph-name="three" unicode="&#xe80f;" d="M722 158v398l-199-199z m-278 199l333 333v-666z m-111-199v398l-199-199z m-277 199l333 333v-666z" horiz-adv-x="833" />

<glyph glyph-name="four" unicode="&#xe810;" d="M461 357l-351 227v-461z m-406-333v666l506-333z" horiz-adv-x="666" />

<glyph glyph-name="five" unicode="&#xe811;" d="M222 80v555h-112v-555h112z m-166 610h221v-666h-221v666z m500-610v555h-112v-555h112z m-167 610h221v-666h-221v666z" horiz-adv-x="666" />

<glyph glyph-name="six" unicode="&#xe812;" d="M666 80v555h-555v-555h555z m-610 610h666v-666h-666v666z" horiz-adv-x="777.3" />

<glyph glyph-name="seven" unicode="&#xe813;" d="M311 357l-200 199v-398z m-255-333v666l333-333z m643 333l-199 199v-398z m-255-333v666l333-333z" horiz-adv-x="833" />

<glyph glyph-name="L" unicode="&#xe814;" d="M83 413h611q12 0 20-9t8-19v-445q0-11-8-19t-20-9h-611q-12 0-19 9t-8 19v445q0 11 8 19t19 9z m28-445h555v389h-555v-389z m445 500v145q0 62-53 97t-114 36-115-36-52-97v-145h-56v145q0 84 70 138 65 50 153 50 89 0 152-50 70-54 70-138v-145h-55z" horiz-adv-x="777.3" />

<glyph glyph-name="K" unicode="&#xe815;" d="M723 727v-108l175 174q7 8 19 8t20-8q7-7 7-19t-7-20l-834-834q-5-5-9-6-6-2-11-2-11-1-21 10-6 6-6 18t8 20l230 230h-40q-13 0-22 10t-9 22v270q0 13 9 23t22 9h201l235 217q10 10 19 10 14 0 14-24z m-446-481h73l317 317v81l-190-176h-200v-222z m432-279q-9 0-19 11l-235 212h-4l41 41 175-157v332l56 55v-469q0-25-14-25z" horiz-adv-x="1000" />

<glyph glyph-name="J" unicode="&#xe816;" d="M383 571q16-17 16-42t-16-42l-26-25q37-51 80-93 60-59 111-97l25 24q17 17 42 17t43-17l158-158q17-16 17-42t-17-42l-52-53q-6-6-22-16-11-8-52-16-4-1-10-1-72 4-196 99-130 99-259 243-109 121-149 202-21 44-21 72v7q0 54 42 96l42 42q16 17 42 17t43-17z m-63-159q-26 37-27 39l-12 19 59 59-157 157-44-41q-24-23-24-60 0-34 53-110 62-89 183-210 125-125 221-188 75-49 107-49h5q13 0 27 9l11 6 52 53-159 158-58-58-21 11q-1 1-38 28t-95 83-83 94z" horiz-adv-x="888.7" />

<glyph glyph-name="I" unicode="&#xe817;" d="M777 635v-55h-554v55h554z m0-167v-55h-554v55h554z m-277-167v-55h-277v55h277z m-389 500h778q21 0 38-17t17-38v-611q0-21-17-38t-38-17h-389l-223-168v168h-166q-21 0-38 17t-17 38v611q0 21 17 38t38 17z m372-666h406v611h-778v-611h222v-111z" horiz-adv-x="1000" />

<glyph glyph-name="H" unicode="&#xe818;" d="M573 263l-73-73v-110h-111v-112h-112l-54-56h-84q-28 0-47 20l-17 17q-8 7-13 22t-6 24v56q0 26 19 48l331 331q-17 49-17 94 0 113 82 196 79 81 196 81 116 0 196-81 81-83 81-196 0-115-81-197-38-37-88-59t-102-22-100 17z m-462-213v-55q0-1 4-8l16-16 9-3h59l56 56h78v111h111v78l115 115 33-12q37-15 75-15 93 0 157 66 65 66 65 157t-65 157q-63 65-157 65-93 0-157-65-30-30-48-71t-18-83 15-78l12-34-357-355z m650 490q-16-16-39-16t-39 16-16 39 16 40 39 16 39-16 16-40-16-39z" horiz-adv-x="1000" />

<glyph glyph-name="G" unicode="&#xe819;" d="M56 635v166h833v-166l-333-334v-221l-167-168v389z m461-294l293 294h-675l293-294q16-16 16-40v-255l56 56v199q0 24 17 40z m-406 349h722v56h-722v-56z" horiz-adv-x="944.3" />

<glyph glyph-name="F" unicode="&#xe81a;" d="M517 635h372q23 0 39-16t16-39v-500q0-24-16-40t-39-16h-778q-23 0-39 16t-16 40v610q0 23 16 39t39 17h278z m-145 55h-261v-55h325z m-261-610h778v500h-778v-500z" horiz-adv-x="1000" />

<glyph glyph-name="E" unicode="&#xe81b;" d="M83 690h834q11 0 19-8t8-19v-612q0-11-8-19t-19-8h-834q-11 0-19 8t-8 19v612q0 11 8 19t19 8z m750-360h56v55h-56v250h-722v-555h722v250z" horiz-adv-x="1000" />

<glyph glyph-name="D" unicode="&#xe81c;" d="M500 746h194q13 0 20-8t8-20-8-20-20-8h-611q-13 0-20 8t-7 20 7 20 20 8h194v28q0 13 8 20t21 7h166q12 0 20-7t8-20v-28z m166-111h56l-56-695q0-12-7-20t-20-8h-500q-9 0-18 8t-10 20l-55 695h60q0-3 8-107t17-228 17-228l8-104h445l8 103q9 102 28 322t19 242z m-389-578q0-33-27-33t-28 33v489q0 13 8 23t20 11q27 0 27-34v-489z m279 0q0-33-28-33t-28 33v489q0 13 7 23t20 11q29 0 29-34v-489z m-167-33q-28 0-28 33v489q0 13 8 23t20 11q27 0 27-34v-489q0-33-27-33z" horiz-adv-x="777.3" />

<glyph glyph-name="C" unicode="&#xe81d;" d="M389 801h388q24 0 40-16t16-39v-666q0-24-16-40t-40-16h-166v56h166v666h-388v-56h-56v56q0 23 17 39t39 16z m111-833v612h-389v-612h389z m-389 667h389q23 0 39-16t17-39v-612q0-23-17-39t-39-17h-389q-23 0-39 17t-16 39v612q0 22 16 39t39 16z" horiz-adv-x="888.7" />

<glyph glyph-name="B" unicode="&#xe81e;" d="M706-16q-16-16-39-16t-40 16-16 39 16 40 40 17 39-17 16-40-16-39z m-333 0q-17-16-39-16t-40 16-17 39 17 40 40 17 39-17 16-40-16-39z m-67 206h444q12 0 20-8t7-19-7-20-20-8h-444q-22 0-39 15t-21 35l-74 445q-2 5-5 5h-84q-12 0-19 8t-8 20 8 19 19 8h84q22 0 39-15t22-40h616q24 0 36-15 9-12 9-28 1-5-1-11l-55-224q-5-23-18-39t-38-17h-495l19-106q0-5 5-5z m467 171q4 4 4 7l53 212h-594l37-223h491q4 0 9 4z" horiz-adv-x="944.3" />

<glyph glyph-name="A" unicode="&#xe81f;" d="M111 801h666q24 0 40-16t16-39v-778q0-23-16-39t-40-17h-666q-23 0-39 17t-16 39v778q0 23 16 39t39 16z m0-833h666v612h-666v-612z m0 778v-111h666v111h-666z m303-699h-247q0 74 30 122 13 20 50 53 5 3 18 12t41 29 46 48 17 53q0 40-14 58-26 34-61 34-42 0-60-37-9-17-9-51h-58q0 92 70 123 28 11 58 11 60 0 97-41 33-37 33-88 0-79-66-126-18-14-39-28-52-36-63-47t-18-21q-18-24-18-58h193v-46z m107 244q33 49 86 49 53 0 86-43 29-38 29-100 0-68-34-108-33-42-87-42-69 0-103 63-19 36-23 76t-3 82q0 91 20 141t49 71 61 22q59 0 87-39 21-31 23-69h-50q-10 63-57 63-63 0-79-105-3-26-5-61z m79 5q-35 0-56-36-15-25-15-56 0-81 39-104 15-9 32-9 35 0 53 32 17 30 17 59 0 82-39 106-14 8-31 8z" horiz-adv-x="888.7" />

<glyph glyph-name="question" unicode="&#xe820;" d="M83 801h834q11 0 19-8t8-19v-834q0-11-8-19t-19-9h-834q-11 0-19 9t-8 19v834q0 12 8 19t19 8z m28-833h778v778h-778v-778z m388 610q-76 0-82-115h-60q4 112 70 153 31 19 69 19 72 0 113-47 34-38 34-97 0-53-33-102-5-9-16-20-11-14-28-33-36-44-36-118h-59v12q0 67 33 119 11 17 27 34 45 50 45 105 0 40-21 65-21 25-56 25z m31-498h-59v92h59v-92z" horiz-adv-x="1000" />

<glyph glyph-name="greater" unicode="&#xe821;" d="M278 746v-111h-55v111h55z m0-722h112v-56h-279v56h112v444h-112v56h167v-500z" horiz-adv-x="500" />

<glyph glyph-name="equal" unicode="&#xe822;" d="M917 635h-834q-12 0-19 8t-8 20 8 20 19 7h834q12 0 20-7t7-20-7-20-20-8z m-834-500h834q12 0 20-8t7-20-7-20-20-7h-834q-12 0-19 7t-8 20 8 20 19 8z m0 278h834q12 0 20-8t7-20-7-20-20-8h-834q-12 0-19 8t-8 20 8 20 19 8z" horiz-adv-x="1000" />

<glyph glyph-name="less" unicode="&#xe823;" d="M75 536q4 84 34 127 58 83 166 83 101 0 157-64 48-54 48-134 0-93-93-200-39-45-49-62-22-37-22-128h-62q0 46 5 88 6 53 54 110 10 13 29 33 55 65 66 113 5 20 5 45 0 53-31 94-38 46-103 46-98 0-131-85-9-28-10-66h-63z m248-568h-78v114h78v-114z" horiz-adv-x="554.7" />

<glyph glyph-name="semicolon" unicode="&#xe824;" d="M666 357q0 117-82 198t-195 80-197-82q-81-80-81-196 0-115 81-196t197-81 196 81 81 196z m-513 236q97 97 236 97t236-97 97-236-97-236-236-97-236 97-97 236 97 236z" horiz-adv-x="777.3" />

<glyph glyph-name="colon" unicode="&#xe825;" d="M214 310q-8-9-20-9h-111q-12 0-19 9t-8 20v110q0 12 8 20t19 8h111q12 0 20-8t8-20v-110q0-12-8-20z m278 0q-9-9-20-9h-111q-11 0-20 9t-8 20v110q0 12 8 20t20 8h111q11 0 20-8t8-20v-110q0-12-8-20z m278 0q-8-9-20-9h-111q-12 0-20 9t-8 20v110q0 12 8 20t20 8h111q12 0 20-8t7-20v-110q0-12-7-20z" horiz-adv-x="832" />

<glyph glyph-name="nine" unicode="&#xe826;" d="M556 556v-398l199 199z m277-199l-333-333v666z m-666 199v-398l199 199z m277-199l-333-333v666z m445 306q0 11 8 19t20 8 19-8 8-19v-612q0-11-8-19t-19-8-20 8-8 19v612z" horiz-adv-x="1000" />

<glyph glyph-name="eight" unicode="&#xe827;" d="M110 556v-398l200 199z m279-199l-334-333v666z m55 306q0 11 8 19t20 8 20-8 8-19v-612q0-11-8-19t-20-8-20 8-8 19v612z" horiz-adv-x="554.7" />

<glyph glyph-name="M" unicode="&#xe828;" d="M554 357h110q13 0 21-8t7-20-7-20-21-8q0-104-70-181-70-78-174-91v-61h134q11 0 19-10t8-23v-23h-389v23q0 13 8 23t20 10h134v61q-107 10-174 87-71 78-71 185-12 0-20 8t-8 20 8 20 20 8h111v278q0 67 50 116t117 50 116-50 51-116v-278z m-244 354q-35-35-35-76v-334q0-41 33-76t79-35 78 35 33 76v334q0 45-35 78t-76 33-77-35z m-146-410q0-93 66-157t157-64 157 65q65 64 65 156h-55q0-66-51-116t-116-50-117 50-50 116h-56z" horiz-adv-x="775.4" />

<glyph glyph-name="N" unicode="&#xe829;" d="M389 22v2h222v-2q0-46-32-78t-79-32-79 32-32 78z m341 603l168 168q7 8 19 8t20-8q7-7 7-19t-7-20l-834-834q-8-8-20-8t-19 9-8 19 8 20l120 120h-34q-13 0-23 9t-7 24l70 331q17 97 78 168 61 71 153 94v16q0 30 24 55t55 24 55-24 24-55v-14q83-19 151-83z m-485-191l-63-299h57l451 451q-54 51-124 69l-38 10v53q0 12-8 20t-20 8-19-8-8-20v-56l-39-10q-73-18-124-77-51-59-65-139v-2z m513 64l42 42q26-50 33-96l47-331q3-14-7-24t-23-9h-510l56 55h424l-42 301q-4 28-20 62z" horiz-adv-x="1000" />

<glyph glyph-name="O" unicode="&#xe82a;" d="M651 715q-71 31-151 31t-151-31-124-83-83-124-31-151 31-151 83-124 124-83 151-31 151 31 124 83 83 124 31 151-31 151-83 124-124 83z m-324 52q81 34 173 34t173-34 142-96 95-141 34-173-34-173-95-141-142-95-173-36-173 36-141 95-96 141-34 173 34 173 96 141 141 96z m236-409q0-27-19-45t-45-19-45 19-18 45q0 1 4 20l-182 182 40 39 182-182q9 4 15 4t26-4l127 126 39-39-128-128q4-7 4-18z" horiz-adv-x="1000" />

<glyph glyph-name="P" unicode="&#xe82b;" d="M92 432q110 110 263 110h24q11 0 35-5l243 243q18 17 44 17t43-17l183-182q17-17 17-44t-17-44l-243-242q6-27 6-41 0-67-18-125-27-84-97-153l-19-20-484 484z m463-424q48 55 68 127 11 37 11 71t-8 63l-4 16 265 265v9l-182 182h-9l-264-266-16 4q-31 9-46 9h-17q-34 0-74-11-71-18-128-65z m-491-48l191 191 39-39-191-192q-5-5-9-6-6-2-11-2-11-1-21 10-6 6-6 18t8 20z" horiz-adv-x="1000" />

<glyph glyph-name="Q" unicode="&#xe82c;" d="M889 190h-56v445h-666v-445h-56v445q0 23 16 39t40 16h666q23 0 40-16t16-39v-445z m-801-134q-32 32-32 79h888q0-47-32-79t-79-32h-666q-46 0-79 32z m338-5h148q12 0 20 9t8 19-8 20-20 8h-148q-12 0-20-8t-8-20 8-19 20-9z" horiz-adv-x="1000" />

<glyph glyph-name="R" unicode="&#xe82d;" d="M277 24v33q0 9 17 16t39 7h334q23 0 39-7t17-16v-33h-446z m-194 666h834q11 0 19-8t8-19v-500q0-12-8-20t-19-8h-361v-30h-112v30h-361q-11 0-19 8t-8 20v500q0 11 8 19t19 8z m28-500h778v445h-778v-445z" horiz-adv-x="1000" />

<glyph glyph-name="S" unicode="&#xe82e;" d="M500 746l-35-1-23-131-31-11q-44-17-80-46l-24-21-124 45q-17-23-36-61l101-85-6-31q-4-26-4-52 0-17 4-42l6-31-101-85q19-38 36-62l124 46 24-21q36-30 80-46l31-11 5-32 18-98q17-2 35-2t35 2l23 130 31 11q46 16 80 47l24 20 124-46q17 24 37 62l-102 85 6 31q4 25 4 47t-4 47l-6 31 102 85q-20 38-37 61l-124-45-24 21q-36 29-80 46l-31 11-5 32-18 99z m420-243l-107-89q4-35 4-57t-4-57l107-89q-26-78-84-144l-131 48q-41-36-98-57l-24-138q-39-8-83-8-43 0-84 8l-23 138q-55 20-98 57l-131-48q-58 66-84 144l108 89q-5 34-5 57t5 57l-108 89q26 77 84 145l131-49q41 36 98 57l23 137q41 8 84 8t84-8l23-137q55-20 98-57l131 49q58-68 84-145z m-318-45q-42 42-102 42t-102-42-42-101 42-101 102-42 102 42 42 101-42 101z m-243 40q58 58 141 58 82 0 141-58 57-58 57-141 0-82-58-140t-140-58-140 58-58 140q0 81 57 141z" horiz-adv-x="1000" />

<glyph glyph-name="T" unicode="&#xe82f;" d="M333 413v-187h-186v187h186z m480 0v-187h-187v187h187z" horiz-adv-x="959" />

<glyph glyph-name="U" unicode="&#xe830;" d="M579 658q-33 32-79 32t-79-32-32-78v-167q0-46 32-79t79-33 79 33 32 79v167q0 45-32 78z m-197 39q49 49 118 49t118-49 49-117v-167q0-70-49-119t-118-48-118 48-49 119v167q0 68 49 117z m-169-506h574q66 0 111-47t46-111v-65h-55v65q0 42-30 72t-72 30h-574q-42 0-72-30t-30-72v-65h-55v65q0 65 46 111t111 47z" horiz-adv-x="1000" />

<glyph glyph-name="V" unicode="&#xe831;" d="M803 650q14 0 25-10t10-25-11-24l-533-533-21 22q-3 3-91 85t-120 115q-10 10-10 24t13 27q6 7 21 7t24-9q103-104 184-173l484 484q10 10 25 10z" horiz-adv-x="888.7" />

<glyph glyph-name="W" unicode="&#xe832;" d="M410 793q63-7 105-21 31-11 36-39l5-28v-702l-5-24q-5-26-36-37-78-30-218-30-53 0-115 12-70 13-84 18-32 10-37 37l-5 24v702l5 28q5 28 42 41t98 20 104 7 105-8z m91-790v77h-390v-77l1-4q1-4 11-7t68-14 107-10 106 7q62 7 92 19 5 2 5 9z m-390 132h390v500h-390v-500z m0 555h390v15q-3 12-5 14-35 13-93 20t-98 7-98-7q-60-7-91-20-5-2-5-14v-15z m219-643q4-4 4-9v-28q0-6-4-10t-10-5h-28q-6 0-10 5t-4 10v28q0 5 4 9t10 4h28q6 0 10-4z" horiz-adv-x="611.3" />

<glyph glyph-name="X" unicode="&#xe833;" d="M483 357l294-294q9-9 9-20t-8-20-20-8-19 9l-295 294-295-294q-7-9-19-9t-19 8-8 20 8 20l294 294-294 295q-8 8-8 19t8 19 19 9 19-9l295-294 295 294q8 9 19 9t20-9 8-19-9-19z" horiz-adv-x="888.7" />

<glyph glyph-name="Y" unicode="&#xe834;" d="M79 135h572q8 0 11 2 2 2 11 20l12 39h233q27 48 27 94 0 67-47 115-47 47-114 47-25 0-55-12l-44-17-23 39q-29 55-84 86t-110 32q-66 0-122-29-122-60-122-194v-56h-56q-38 0-73-27-34-26-38-62 0-56 22-77z m790 350q41-18 70-46 29-29 45-69t17-83q0-44-16-83-17-43-40-69h-221q-20-55-73-55h-594q-34 20-47 58-11 30-11 61 0 65 63 116 51 42 106 42 0 79 39 145 40 68 110 99 78 34 145 34 40 0 76-12 117-38 174-132 46 10 82 10t75-16z" horiz-adv-x="1000" />

<glyph glyph-name="Z" unicode="&#xe835;" d="M357 149l-221-223q-15-14-33-14t-33 15-14 33 13 33l223 221q27-38 65-65z m406 471q-74 75-180 75-106 0-180-75-74-76-74-180 0-104 74-180 74-74 180-74 106 0 180 75t75 179q0 105-75 180z m-298 102q56 24 118 24 127 0 216-89 42-42 66-98t24-119-24-118-66-97-97-66-118-24-119 24-97 66-66 97-25 118 25 119 66 97 97 66z m-48-309q-12 0-20 8t-8 19 8 20 20 8h333q12 0 20-8t7-20-7-19-20-8h-333z" horiz-adv-x="944.3" />

<glyph glyph-name="a" unicode="&#xe836;" d="M284-53q-94 0-162 66-66 65-66 162 0 95 66 161l370 370q9 9 20 9t20-8 8-20-8-20l-370-370q-51-50-51-122t51-122 122-51 122 51l450 450q33 31 33 78 0 44-32 76t-77 32-78-31l-450-451q-14-13-14-27 0-25 14-37 16-14 32-14 20 0 32 14l371 370q7 8 19 8t20-8 8-20-8-19l-370-370q-29-29-72-29t-71 29q-30 28-30 71 0 41 30 72l450 451q46 46 116 46t118-47q47-50 47-116 0-70-47-118l-451-450q-68-66-162-66z" horiz-adv-x="1000" />

<glyph glyph-name="b" unicode="&#xe837;" d="M71-85q-6 2-10 10t-5 15l-1 834q0 9 8 19 5 8 20 8h389q11 0 20-8t8-19v-834q0-20-18-26-5-2-11-2-10-1-19 9l-175 155-173-155q-9-9-18-9t-15 3z m226 220l147-125v736h-334v-736l147 125q7 9 20 9 13 0 20-9z" horiz-adv-x="554.7" />

<glyph glyph-name="c" unicode="&#xe838;" d="M939 218q0-28-22-28h-667q-13 0-20 8t-7 20 7 20 20 8h661q13 0 20-8t8-20z m-28 250q33 0 33-28 0-12-7-20t-20-7h-667q-13 0-20 7t-7 20 7 20 20 8h661z m28-473q0-27-22-27h-667q-13 0-20 8t-7 20 7 20 20 8h661q13 0 20-8t8-21z m-883 751h333l-166-166z" horiz-adv-x="1000" />

<glyph glyph-name="d" unicode="&#xe839;" d="M333 246v528q0 12 8 19t20 8 19-8 9-19v-528h194l-223-222-221 222h194z m-186-286q8 8 19 8h390q10 0 19-8t8-20-8-19-19-9h-390q-11 0-19 9t-8 19 8 20z" horiz-adv-x="666" />

<glyph glyph-name="e" unicode="&#xe83a;" d="M143 213l515 516q17 17 40 17t39-17l80-79q16-17 16-40t-17-39l-514-517-41 40 516 516-80 80-515-517z m-40-39l158-159-171-45q-4-2-12-2-2 0-15 7-2 1-3 4t-2 5q-2 4-2 10 0 4 2 8z" horiz-adv-x="888.7" />

<glyph glyph-name="f" unicode="&#xe83b;" d="M111 801h412l199-200v-633q0-20-17-38t-39-18h-555q-21 0-38 18t-17 38v778q0 21 17 38t38 17z m389-221h166l-166 166v-166z m-389 166v-778h555v556h-166q-21 0-39 17t-17 39v166h-333z" horiz-adv-x="777.3" />

<glyph glyph-name="z" unicode="&#xe83c;" d="M357 149l-221-223q-15-14-33-14t-33 15-14 33 13 33l223 221q27-38 65-65z m406 471q-74 75-180 75-106 0-180-75-74-76-74-180 0-104 74-180 74-74 180-74 106 0 180 75t75 179q0 105-75 180z m-298 102q56 24 118 24 127 0 216-89 42-42 66-98t24-119-24-118-66-97-97-66-118-24-119 24-97 66-66 97-25 118 25 119 66 97 97 66z m146-254h139q12 0 20-8t7-20-7-19-20-8h-139v-139q0-12-8-20t-19-8-20 8-8 20v139h-139q-12 0-20 8t-8 19 8 20 20 8h139v139q0 12 8 20t20 8 19-8 8-20v-139z" horiz-adv-x="944.3" />

<glyph glyph-name="y" unicode="&#xe83d;" d="M83 801h834q12 0 20-7t7-20v-834q0-12-7-20t-20-8h-834q-12 0-19 8t-8 20v834q0 13 8 20t19 7z m28-833h778v778h-778v-778z m331 447q25 25 58 25t58-23 25-58-25-60-58-25-58 25-25 58 25 58z m-41 41q-40-41-40-99v-27h-167q-12 0-20 7t-7 20 7 20 20 8h118q7 71 60 118t133 48 134-55q9-8 9-19t-9-20-19-8-20 8q-47 39-103 39t-96-40z m198-198q40 40 40 99v28h167q12 0 20-8t7-20-7-20-20-7h-117q-8-72-61-120t-133-47-134 55q-8 8-8 19t8 20 20 8q10 0 19-8 49-39 104-39t95 40z" horiz-adv-x="1000" />

<glyph glyph-name="x" unicode="&#xe83e;" d="M651 715q-71 31-151 31t-151-31-124-83-83-124-31-151 31-151 83-124 124-83 151-31 151 31 124 83 83 124 31 151-31 151-83 124-124 83z m-324 52q81 34 173 34t173-34 142-96 95-141 34-173-34-173-95-141-142-95-173-36-173 36-141 95-96 141-34 173 34 173 96 141 141 96z m387-235l-175-175 175-175q9-8 9-19t-9-20-23-8q-8 0-16 8l-175 175-175-175q-8-8-22-8-9 0-20 10-6 5-6 18 0 11 9 19l175 175-175 175q-9 8-9 19t9 20 20 9 19-9l175-175 175 175q8 9 19 9t20-9 9-20-9-19z" horiz-adv-x="1000" />

<glyph glyph-name="w" unicode="&#xe83f;" d="M611 774l222-223-222-221v194h-55q-90 0-171-36t-141-97-97-142-36-169v-112q0-12-8-20t-20-8-19 8-8 20v112q0 100 40 191t109 159 159 109 192 41h55v194z" horiz-adv-x="944.3" />

<glyph glyph-name="v" unicode="&#xe840;" d="M651 715q-71 31-151 31t-151-31-124-83-83-124-31-151 31-151 83-124 124-83 151-31 151 31 124 83 83 124 31 151-31 151-83 124-124 83z m-324 52q81 34 173 34t173-34 142-96 95-141 34-173-34-173-95-141-142-95-173-36-173 36-141 95-96 141-34 173 34 173 96 141 141 96z m423-236q15 0 25-11t10-24-11-25l-333-333q-10-11-24-11t-24 11l-167 167q-11 10-11 24t10 24 25 11 24-10l143-143 309 309q9 11 24 11z" horiz-adv-x="1000" />

<glyph glyph-name="u" unicode="&#xe841;" d="M389 580v-529q0-11-9-19t-19-8-20 8-8 19v529h-194l222 221 222-221h-194z m-242-620q8 8 19 8h390q10 0 19-8t8-20-8-19-19-9h-390q-11 0-19 9t-8 19 8 20z" horiz-adv-x="668.9" />

<glyph glyph-name="t" unicode="&#xe842;" d="M341 413v-187h-187v187h187z m479 0v-187h-186v187h186z m-261-415q11-39 83-41h31v-43l-376-2v43h31q51 0 70 18 7 9 14 25t7 88v672h-27q-64 0-117-37-76-58-89-230l-39 2 7 308 665 2 6-308-40-2q-19 154-77 216-49 51-137 51h-20v-672q0-72 8-90z" horiz-adv-x="971.7" />

<glyph glyph-name="s" unicode="&#xe843;" d="M192 553q-81-81-81-196 0-12-8-20t-20-7-19 7-8 20q0 136 97 235 85 87 212 97 13 1 26 1 109-1 197-67l122 123v-279h-277l115 116q-72 51-157 51-12 0-26-1-99-7-173-80z m482-176q9 8 20 8t20-8 8-20q0-64-25-125-23-60-73-110-85-87-212-97-13-1-25-1-110 1-197 67l-123-122v278h278l-115-117q72-50 157-50 11 0 25 1 100 6 173 80 81 81 81 196 0 12 8 20z" horiz-adv-x="777.3" />

<glyph glyph-name="r" unicode="&#xe844;" d="M277 774v-194h56q101 0 191-41t160-109 109-159 40-191v-112q0-12-8-20t-19-8-20 8-9 20v112q0 88-35 169t-97 142-142 97-170 36h-56v-194l-221 221z" horiz-adv-x="888.7" />

<glyph glyph-name="q" unicode="&#xe845;" d="M357 149l-221-223q-15-14-33-14t-33 15-14 33 13 33l223 221q27-38 65-65z m406 471q-74 75-180 75-106 0-180-75-74-76-74-180 0-104 74-180 74-74 180-74 106 0 180 75t75 179q0 105-75 180z m-298 102q56 24 118 24 127 0 216-89 42-42 66-98t24-119-24-118-66-97-97-66-118-24-119 24-97 66-66 97-25 118 25 119 66 97 97 66z" horiz-adv-x="944.3" />

<glyph glyph-name="p" unicode="&#xe846;" d="M223 690v-110h-56v138q0 13 7 20t20 8h612q12 0 20-8t7-20v-138h-56v110h-554z m603-325q-8-8-20-8t-21 8-8 20q0 12 8 20t21 8 20-8 7-20q0-12-7-20z m-743 159h834q12 0 20-8t7-20v-333q0-13-7-20t-20-8h-140v-140q0-11-7-19t-20-8h-500q-13 0-20 8t-7 19v140h-140q-12 0-19 8t-8 20v333q0 12 8 20t19 8z m640-500v222h-446v-222h446z m54 166h112v278h-778v-278h112v56h-56v55h666v-55h-56v-56z" horiz-adv-x="1000" />

<glyph glyph-name="o" unicode="&#xe847;" d="M651 715q-71 31-151 31t-151-31-124-83-83-124-31-151 31-151 83-124 124-83 151-31 151 31 124 83 83 124 31 151-31 151-83 124-124 83z m-324 52q81 34 173 34t173-34 142-96 95-141 34-173-34-173-95-141-142-95-173-36-173 36-141 95-96 141-34 173 34 173 96 141 141 96z m323-108q14-7 19-20t-3-29-22-17-23 2q-51 26-114 26-112 0-192-80t-79-191q0-15-10-25t-24-10-25 10-10 25q0 70 27 132t73 109 108 73 134 26 141-31z" horiz-adv-x="1000" />

<glyph glyph-name="n" unicode="&#xe848;" d="M389 22v2h222v-2q0-53-34-80t-77-27-77 27-34 80z m444 422l47-331q3-14-7-24t-23-9h-700q-13 0-23 9t-7 24l70 331q17 97 78 167 62 72 153 95v16q0 38 25 57t55 19 54-19 24-57v-14q91-21 165-96 75-74 89-168z m-588-10l-63-299h638l-42 301q-11 74-72 137t-140 82l-38 10v53q0 27-27 27t-28-27v-56l-39-10q-73-18-124-77-51-59-65-139v-2z" horiz-adv-x="1000" />

<glyph glyph-name="m" unicode="&#xe849;" d="M56 690h888v-583q0-12-8-20t-19-7h-834q-11 0-19 7t-8 20v583z m444-274l388 219h-776z m-389-281h778v437l-375-211q-6-4-14-4t-14 4l-375 211v-437z" horiz-adv-x="1000" />

<glyph glyph-name="l" unicode="&#xe84a;" d="M770 799q74 0 124-49 50-52 50-124 0-74-51-124l-205-206q-54-51-124-51-73 0-124 51-8 8-8 20t8 20 19 8 20-9q34-33 85-33t84 33l206 206q35 34 35 85 0 51-35 84-34 35-84 35t-85-35l-206-206q-8-7-20-7t-19 8-8 19 8 20l206 206q49 49 124 49z m-455-796l207 206q7 8 19 8t20-8 7-20-7-20l-206-205q-50-52-124-52-73 0-125 52-50 51-50 123 0 74 50 124l207 206q49 50 124 50t124-50q7-7 7-19t-7-20-20-8-19 8q-35 34-85 34t-84-34l-206-206q-36-33-36-85 0-50 36-84 33-34 84-34t84 34z" horiz-adv-x="1000" />

<glyph glyph-name="udieresis" unicode="&#xe84b;" d="M889 774q11 0 20-8t8-20-9-20l-194-194 119-119h-277v277l119-119 194 194q8 9 20 9z m-797-786l194 194-119 119h277v-277l-119 119-194-194q-9-9-23-9-7 0-18 11-7 6-7 17 0 12 9 20z" horiz-adv-x="1000" />

<glyph glyph-name="adieresis" unicode="&#xe84c;" d="M151-32h-80v117h80v-117z m-5 550l-16-354h-38l-16 354v228h70v-228z" horiz-adv-x="222.7" />

<glyph glyph-name="k" unicode="&#xe84d;" d="M500 74v570l-190-176h-199v-222h199z m56 653v-735q0-25-14-25-10 0-19 11l-235 212h-201q-13 0-22 10t-9 22v270q0 13 9 23t22 9h201l235 217q9 10 19 10 14 0 14-24z m145-618q-9-16-21-18-11-2-22 4-9 5-11 19-2 10 4 20 72 102 72 223 0 122-72 223-6 9-4 21t11 18 21 4 18-11q80-115 80-255 0-141-76-248z m133-102h-1q-6-10-18-12t-21 5-11 18 5 21q101 146 101 318t-101 318q-7 10-5 21t11 18 21 4 18-11q26-37 47-78 64-131 64-272 0-189-110-350z" horiz-adv-x="1000" />

<glyph glyph-name="j" unicode="&#xe84e;" d="M506 357h-12q-86 0-144-11v-39q0-25-18-43t-43-18h-233q-26 0-41 15t-15 40v67q0 35 33 78 26 33 88 52 140 42 379 42h6q131 0 243-16 181-26 224-78 27-39 27-78v-67q0-20-15-38t-41-17h-233q-24 0-42 18t-19 43v39q-58 11-144 11z m125 48l47-9q22-10 22-28l5-65v-2h239v67l-1 13q-2 15-9 32-24 28-133 48-128 24-295 24h-6q-92 0-166-7-147-14-217-40-54-21-59-57l-2-13v-67h233l6 6v61q0 17 21 28l47 9q48 8 131 8h47q42 0 90-8z" horiz-adv-x="1000" />

<glyph glyph-name="germandbls" unicode="&#xe84f;" d="M226 687h548q24 0 40-16t16-40v-549q0-23-16-39t-40-16h-548q-24 0-40 16t-16 39v549q0 24 16 40t40 16z m0-605h548v549h-548v-549z m671 538q8 8 20 8t19-8 8-19v-487q0-12-8-20t-19-9-20 9-8 20v487q0 11 8 19z m-833 0q8 8 20 8t19-8 8-19v-487q0-12-8-20t-19-9-20 9-8 20v487q0 11 8 19z" horiz-adv-x="1000" />

<glyph glyph-name="Udieresis" unicode="&#xe850;" d="M611 746h278v-278l-119 119-195-194q-8-8-22-8-9 0-20 10-6 5-6 18 0 11 9 19l195 194z m-380-620l194 195q8 9 19 9t20-9 9-20-9-19l-194-195 119-119h-278v278z" horiz-adv-x="1000" />

<glyph glyph-name="i" unicode="&#xe851;" d="M83 801h834q11 0 19-8t8-19v-834q0-11-8-19t-19-9h-834q-11 0-19 9t-8 19v834q0 12 8 19t19 8z m28-833h778v778h-778v-778z m445 667v-111h-56v111h56z m0-500h55v-55h-167v55h56v278h-56v55h112v-333z" horiz-adv-x="1000" />

<glyph glyph-name="h" unicode="&#xe852;" d="M500 746l435-380q8-8 9-20t-6-20q-9-9-24-9-9 0-16 7l-398 348-398-348q-9-8-20-7t-19 9-7 20 9 20z m-277-778h554v389l56-48v-369q0-11-8-19t-19-9h-612q-11 0-19 9t-8 19v369l55 49z" horiz-adv-x="1000" />

<glyph glyph-name="section" unicode="&#xe853;" d="M120 32q-10-8-21-8t-19 8-8 19 8 20l286 286-286 286q-8 8-8 20t8 19q9 8 20 8t20-8l325-325z" horiz-adv-x="501" />

<glyph glyph-name="braceleft" unicode="&#xe854;" d="M0 850h1000v-1000z" horiz-adv-x="0" />

<glyph glyph-name="g" unicode="&#xe855;" d="M611 604q67-64 93-148t8-175-87-160-161-87-173 8-148 92-82 163q-3 18-6 53t28 35q27 0 28-27 2-118 81-197 66-66 162-79 96-12 174 36 90 51 119 139t5 171-91 146-172 61v-167l-195 195 195 194v-167q134 0 222-86z" horiz-adv-x="777.3" />
</font>
</defs>
</svg>
